HIERARCHY
ROOT Hips
{
	OFFSET 0.000000 0.000000 0.000000
	CHANNELS 6 Xposition Yposition Zposition Zrotation Yrotation Xrotation 
	JOINT LHipJoint
	{
		OFFSET 0.000000 0.000000 0.000000
		CHANNELS 3 Zrotation Yrotation Xrotation
		JOINT LeftUpLeg
		{
			OFFSET 1.363060 -1.794630 0.839290
			CHANNELS 3 Zrotation Yrotation Xrotation
			JOINT LeftLeg
			{
				OFFSET 2.448110 -6.726130 0.000000
				CHANNELS 3 Zrotation Yrotation Xrotation
				JOINT LeftFoot
				{
					OFFSET 2.562200 -7.039590 0.000000
					CHANNELS 3 Zrotation Yrotation Xrotation
					JOINT LeftToeBase
					{
						OFFSET 0.157640 -0.433110 2.322550
						CHANNELS 3 Zrotation Yrotation Xrotation
						End Site
						{
							OFFSET 0.000000 0.000000 0.000000
						}
					}
				}
			}
		}
	}
	JOINT RHipJoint
	{
		OFFSET 0.000000 0.000000 0.000000
		CHANNELS 3 Zrotation Yrotation Xrotation
		JOINT RightUpLeg
		{
			OFFSET -1.305520 -1.794630 0.839290
			CHANNELS 3 Zrotation Yrotation Xrotation
			JOINT RightLeg
			{
				OFFSET -2.542530 -6.985550 0.000000
				CHANNELS 3 Zrotation Yrotation Xrotation
				JOINT RightFoot
				{
					OFFSET -2.568260 -7.056230 0.000000
					CHANNELS 3 Zrotation Yrotation Xrotation
					JOINT RightToeBase
					{
						OFFSET -0.164730 -0.452590 2.363150
						CHANNELS 3 Zrotation Yrotation Xrotation
						End Site
						{
							OFFSET 0.000000 0.000000 0.000000
						}
					}
				}
			}
		}
	}
	JOINT LowerBack
	{
		OFFSET 0.000000 0.000000 0.000000
		CHANNELS 3 Zrotation Yrotation Xrotation
		JOINT Spine
		{
			OFFSET 0.028270 2.035590 -0.193380
			CHANNELS 3 Zrotation Yrotation Xrotation
			JOINT Spine1
			{
				OFFSET 0.056720 2.048850 -0.042750
				CHANNELS 3 Zrotation Yrotation Xrotation
				JOINT Neck
				{
					OFFSET 0.000000 0.000000 0.000000
					CHANNELS 3 Zrotation Yrotation Xrotation
					JOINT Neck1
					{
						OFFSET -0.054170 1.746240 0.172020
						CHANNELS 3 Zrotation Yrotation Xrotation
						JOINT Head
						{
							OFFSET 0.104070 1.761360 -0.123970
							CHANNELS 3 Zrotation Yrotation Xrotation
							End Site
							{
								OFFSET 0.000000 0.000000 0.000000
							}
						}
					}
				}
				JOINT LeftShoulder
				{
					OFFSET 0.000000 0.000000 0.000000
					CHANNELS 3 Zrotation Yrotation Xrotation
					JOINT LeftArm
					{
						OFFSET 3.362410 1.200890 -0.311210
						CHANNELS 3 Zrotation Yrotation Xrotation
						JOINT LeftForeArm
						{
							OFFSET 4.983000 -0.000000 -0.000000
							CHANNELS 3 Zrotation Yrotation Xrotation
							JOINT LeftHand
							{
								OFFSET 3.483560 -0.000000 -0.000000
								CHANNELS 3 Zrotation Yrotation Xrotation
								JOINT LeftFingerBase
								{
									OFFSET 0.000000 0.000000 0.000000
									CHANNELS 3 Zrotation Yrotation Xrotation
									JOINT LeftHandIndex1
									{
										OFFSET 0.715260 -0.000000 -0.000000
										CHANNELS 3 Zrotation Yrotation Xrotation
										End Site
										{
											OFFSET 0.000000 0.000000 0.000000
										}
									}
								}
								JOINT LThumb
								{
									OFFSET 0.000000 0.000000 0.000000
									CHANNELS 3 Zrotation Yrotation Xrotation
									End Site
									{
										OFFSET 0.000000 0.000000 0.000000
									}
								}
							}
						}
					}
				}
				JOINT RightShoulder
				{
					OFFSET 0.000000 0.000000 0.000000
					CHANNELS 3 Zrotation Yrotation Xrotation
					JOINT RightArm
					{
						OFFSET -3.136600 1.374050 -0.404650
						CHANNELS 3 Zrotation Yrotation Xrotation
						JOINT RightForeArm
						{
							OFFSET -5.241900 -0.000000 -0.000000
							CHANNELS 3 Zrotation Yrotation Xrotation
							JOINT RightHand
							{
								OFFSET -3.444170 -0.000000 -0.000000
								CHANNELS 3 Zrotation Yrotation Xrotation
								JOINT RightFingerBase
								{
									OFFSET 0.000000 0.000000 0.000000
									CHANNELS 3 Zrotation Yrotation Xrotation
									JOINT RightHandIndex1
									{
										OFFSET -0.622530 -0.000000 -0.000000
										CHANNELS 3 Zrotation Yrotation Xrotation
										End Site
										{
											OFFSET 0.000000 0.000000 0.000000
										}
									}
								}
								JOINT RThumb
								{
									OFFSET 0.000000 0.000000 0.000000
									CHANNELS 3 Zrotation Yrotation Xrotation
									End Site
									{
										OFFSET 0.000000 0.000000 0.000000
									}
								}
							}
						}
					}
				}
			}
		}
	}
}
MOTION
Frames: 5
Frame Time: 0.008333
1.069702 17.780376 -32.919340 -2.753765 4.535880 7.357109 1.295346 0.667182 0.337473 -17.461343 -10.011525 -10.133744 1.582379 9.508014 27.112246 1.118558 -2.490192 -13.193178 0.037400 -1.248200 -3.432000 -3.726216 -0.921769 -1.020146 28.588145 4.513462 -9.913252 -2.285792 -9.393596 27.456326 -0.046367 -8.169372 -20.161536 -0.309500 -3.576600 9.888300 2.634238 -2.150519 -2.201062 1.019177 -3.055526 -2.474559 1.818951 -1.824654 0.952759 -5.075212 -2.012322 -15.040197 6.198729 -2.112789 8.679807 1.561700 -0.908400 7.152600 0.977045 4.778089 -0.795848 -90.474430 6.854736 19.530669 16.358305 -26.586697 -3.490392 0.492102 -0.015773 6.288504 4.795053 41.251700 2.840800 -7.125000 0.000000 0.000000 -42.745200 66.516200 -23.971000 -0.495362 -5.068984 -1.615448 87.383895 -5.322034 -10.561680 -8.369601 15.583053 -0.772751 1.088022 0.165966 0.203219 -14.684975 19.630897 -5.348200 7.125000 0.000000 0.000000 8.089000 -10.084900 6.615600 
1.060159 17.778245 -32.923198 -2.887305 4.622562 7.379092 1.294943 0.666888 0.339545 -17.241957 -10.111862 -10.205647 1.603919 9.549023 27.237946 1.132150 -2.513861 -13.295301 0.039600 -1.285100 -3.533700 -3.732829 -0.921928 -1.007934 28.799453 4.690031 -9.891539 -2.270698 -9.379157 27.401424 -0.035741 -8.336302 -20.333095 -0.354500 -3.825200 10.585400 2.680212 -2.150429 -2.137613 1.036357 -3.055260 -2.517458 1.847559 -1.821587 0.795678 -4.976513 -2.022884 -14.930984 6.132052 -2.153841 8.620278 1.507700 -0.931400 7.114100 0.988714 4.765293 -0.798506 -90.427830 6.866758 19.605407 16.326255 -26.541439 -3.485474 0.490874 -0.016333 6.172824 4.966652 40.669962 2.920800 -7.125000 0.000000 0.000000 -41.647900 66.148300 -22.924600 -0.484266 -5.067554 -1.620208 87.442335 -5.458367 -10.718925 -8.357028 15.573601 -0.780860 1.079907 0.134226 0.189414 -13.922116 19.844649 -5.138800 7.125000 0.000000 0.000000 8.596600 -9.916300 7.070000 
1.059550 17.776316 -32.914772 -2.852817 4.728680 7.305670 1.295928 0.668915 0.342431 -17.303673 -10.050249 -10.200575 1.607031 9.552852 27.251927 1.128651 -2.516071 -13.254940 0.050600 -1.452300 -3.994300 -3.727589 -0.923693 -1.021518 28.765382 4.399949 -9.817604 -2.269538 -9.365288 27.372092 -0.049323 -8.213867 -20.269024 -0.348600 -3.793600 10.496600 2.635086 -2.184327 -2.132787 1.026432 -3.096821 -2.510700 1.846134 -1.842696 0.804614 -5.114726 -2.068507 -14.812591 6.333148 -2.202741 8.433391 1.605600 -0.947200 7.020200 0.978061 4.771576 -0.797061 -90.450395 6.934782 19.549393 16.348816 -26.567625 -3.485766 0.491080 -0.016966 6.314330 5.021942 41.246486 2.991300 -7.125000 0.000000 0.000000 -42.519000 66.582500 -23.886600 -0.487989 -5.064952 -1.605415 87.501664 -5.326188 -11.601845 -8.242547 15.353542 -0.736251 1.086300 0.139207 0.998484 -14.489933 19.662131 -5.289500 7.125000 0.000000 0.000000 8.219500 -10.061900 6.728500 
1.053662 17.779057 -32.913147 -2.892387 4.659485 7.259136 1.296483 0.670753 0.344806 -17.249021 -9.979689 -10.152863 1.626572 9.584678 27.356236 1.149373 -2.576642 -13.376855 0.046600 -1.393100 -3.831000 -3.732285 -0.920507 -1.023241 28.839071 4.538524 -9.669812 -2.249286 -9.330920 27.263685 -0.026473 -8.366208 -20.285022 -0.352400 -3.814100 10.554200 2.597026 -2.176641 -2.118048 1.029278 -3.084873 -2.507307 1.880777 -1.839145 0.814786 -5.105720 -2.074455 -14.901164 6.332508 -2.204964 8.674854 1.607300 -0.942100 7.130600 0.979450 4.779341 -0.799172 -90.412669 6.866968 19.640794 16.314154 -26.524662 -3.477010 0.491224 -0.017728 6.027089 5.415724 40.835065 3.225400 -7.125000 0.000000 0.000000 -41.478300 66.405800 -23.054000 -0.489795 -5.061080 -1.610401 87.520736 -5.473657 -10.860893 -8.304909 15.469087 -0.759164 1.085543 0.132069 0.415898 -14.083801 19.883994 -5.207300 7.125000 0.000000 0.000000 8.490200 -9.861800 6.989800 
1.050921 17.777737 -32.905229 -2.753633 4.931392 7.246461 1.298018 0.670619 0.348861 -17.364175 -10.140613 -10.132023 1.637176 9.600212 27.404900 1.157209 -2.665566 -13.312959 0.036400 -1.231200 -3.385200 -3.723507 -0.920839 -1.030257 28.711176 4.309561 -9.615081 -2.242317 -9.307245 27.203642 -0.052161 -8.277253 -20.398945 -0.368200 -3.897400 10.788300 2.438049 -2.253041 -2.138086 1.011035 -3.179927 -2.529698 1.891090 -1.887499 0.799695 -4.942896 -2.149363 -15.153202 6.058707 -2.307261 9.047395 1.463600 -0.998800 7.332200 0.976165 4.780275 -0.812701 -90.407170 6.979192 19.716431 16.382756 -26.620318 -3.508065 0.490661 -0.018677 6.204836 5.408856 40.927751 3.227300 -7.125000 0.000000 0.000000 -41.632000 66.471200 -23.212300 -0.482216 -5.062034 -1.616407 87.588199 -5.442581 -11.521564 -8.222336 15.328924 -0.739500 1.081828 0.105089 0.961538 -13.729109 19.963664 -5.103400 7.125000 0.000000 0.000000 8.725500 -9.801500 7.199000 
